%FSLAX25Y25*%
%MOIN*%
G70*
G01*
G75*
G04 Layer_Color=65535*
%ADD10R,0.05906X0.05118*%
%ADD11R,0.01575X0.02362*%
%ADD12R,0.18504X0.18504*%
%ADD13R,0.01102X0.04331*%
%ADD14R,0.04331X0.01102*%
%ADD15R,0.21654X0.07874*%
%ADD16R,0.10000X0.10000*%
%ADD17R,0.05118X0.05906*%
%ADD18R,0.10000X0.10000*%
%ADD19R,0.12992X0.09449*%
%ADD20R,0.03937X0.09449*%
%ADD21R,0.09055X0.09055*%
%ADD22R,0.05906X0.05906*%
%ADD23C,0.01000*%
%ADD24R,0.05906X0.05906*%
%ADD25C,0.05906*%
%ADD26C,0.04724*%
%ADD27R,0.04724X0.04724*%
%ADD28C,0.05906*%
%ADD29O,0.15748X0.07874*%
%ADD30O,0.07874X0.15748*%
%ADD31O,0.07874X0.17716*%
%ADD32C,0.01969*%
%ADD33C,0.05000*%
%ADD34C,0.00984*%
%ADD35C,0.00787*%
%ADD36C,0.00800*%
D23*
X373602Y219331D02*
X384921D01*
X373602Y213032D02*
Y219331D01*
Y213032D02*
X375472Y211161D01*
X384823D01*
X384921Y211260D01*
Y219331D01*
X374488Y204468D02*
X384134D01*
X383150Y205453D02*
X384134Y204468D01*
X383150Y203583D02*
Y205453D01*
Y203583D02*
X384035Y204468D01*
X384134D01*
X254606Y241142D02*
Y245079D01*
X253622Y240158D02*
X254606Y241142D01*
X206378Y240158D02*
X253622D01*
X205394Y241142D02*
X206378Y240158D01*
X205394Y241142D02*
Y245079D01*
Y254921D02*
Y258858D01*
X206378Y259842D01*
X253622D01*
X254606Y258858D01*
Y254921D02*
Y258858D01*
X262500Y236000D02*
X265500D01*
X260000Y233500D02*
X262500Y236000D01*
X260000Y225000D02*
Y233500D01*
Y225000D02*
X265500D01*
X267500D02*
X273000D01*
Y233500D01*
X270500Y236000D02*
X273000Y233500D01*
X267500Y236000D02*
X270500D01*
X271500Y242000D02*
X275000D01*
X277500Y239500D01*
Y220000D02*
Y239500D01*
X272000Y220000D02*
X277500D01*
X255500D02*
X261000D01*
X255500D02*
Y239500D01*
X258000Y242000D01*
X261500D01*
X173500Y246000D02*
Y249000D01*
Y246000D02*
X176000Y243500D01*
X184500D01*
Y249000D01*
Y251000D02*
Y256500D01*
X176000D02*
X184500D01*
X173500Y254000D02*
X176000Y256500D01*
X173500Y251000D02*
Y254000D01*
X167500Y255000D02*
Y258500D01*
X170000Y261000D01*
X189500D01*
Y255500D02*
Y261000D01*
Y239000D02*
Y244500D01*
X170000Y239000D02*
X189500D01*
X167500Y241500D02*
X170000Y239000D01*
X167500Y241500D02*
Y245000D01*
X126500Y251000D02*
Y254000D01*
X124000Y256500D02*
X126500Y254000D01*
X115500Y256500D02*
X124000D01*
X115500Y251000D02*
Y256500D01*
Y243500D02*
Y249000D01*
Y243500D02*
X124000D01*
X126500Y246000D01*
Y249000D01*
X132500Y241500D02*
Y245000D01*
X130000Y239000D02*
X132500Y241500D01*
X110500Y239000D02*
X130000D01*
X110500D02*
Y244500D01*
Y255500D02*
Y261000D01*
X130000D01*
X132500Y258500D01*
Y255000D02*
Y258500D01*
X391999Y231998D02*
X390999Y232998D01*
X389000D01*
X388000Y231998D01*
Y228000D01*
X389000Y227000D01*
X390999D01*
X391999Y228000D01*
X397997Y232998D02*
X395997Y231998D01*
X393998Y229999D01*
Y228000D01*
X394998Y227000D01*
X396997D01*
X397997Y228000D01*
Y228999D01*
X396997Y229999D01*
X393998D01*
X372000Y232998D02*
X373999D01*
X373000D01*
Y227000D01*
X372000D01*
X373999D01*
X380997Y231998D02*
X379997Y232998D01*
X377998D01*
X376998Y231998D01*
Y228000D01*
X377998Y227000D01*
X379997D01*
X380997Y228000D01*
X382996Y227000D02*
X384996D01*
X383996D01*
Y232998D01*
X382996Y231998D01*
X373999Y200998D02*
X372999Y201998D01*
X371000D01*
X370000Y200998D01*
Y199999D01*
X371000Y198999D01*
X372999D01*
X373999Y197999D01*
Y197000D01*
X372999Y196000D01*
X371000D01*
X370000Y197000D01*
X375998Y201998D02*
Y196000D01*
Y198999D01*
X379997D01*
Y201998D01*
Y196000D01*
X381996Y201998D02*
X385995D01*
X383996D01*
Y196000D01*
X391993D02*
X387994D01*
X391993Y199999D01*
Y200998D01*
X390993Y201998D01*
X388994D01*
X387994Y200998D01*
X393992Y196000D02*
X395992D01*
X394992D01*
Y201998D01*
X393992Y200998D01*
X393000Y206000D02*
X398998D01*
Y203001D01*
X397998Y202001D01*
X395999D01*
X394999Y203001D01*
Y206000D01*
X393000Y197003D02*
X398998D01*
X395999Y200002D01*
Y196003D01*
X205000Y294000D02*
Y299998D01*
X202001D01*
X201001Y298998D01*
Y296999D01*
X202001Y295999D01*
X205000D01*
X203001D02*
X201001Y294000D01*
X195003Y299998D02*
X199002D01*
Y296999D01*
X197003Y297999D01*
X196003D01*
X195003Y296999D01*
Y295000D01*
X196003Y294000D01*
X198002D01*
X199002Y295000D01*
X217000Y295000D02*
X211002D01*
Y297999D01*
X212002Y298999D01*
X214001D01*
X215001Y297999D01*
Y295000D01*
X211002Y300998D02*
Y304997D01*
X212002D01*
X216000Y300998D01*
X217000D01*
X121999Y293998D02*
X119999D01*
X120999D01*
Y289000D01*
X119999Y288000D01*
X119000D01*
X118000Y289000D01*
X123998Y288000D02*
X125997D01*
X124998D01*
Y293998D01*
X123998Y292998D01*
X272000Y268998D02*
Y264000D01*
X273000Y263000D01*
X274999D01*
X275999Y264000D01*
Y268998D01*
X277998Y263000D02*
X279997D01*
X278998D01*
Y268998D01*
X277998Y267998D01*
X264000Y300000D02*
Y305998D01*
X266999D01*
X267999Y304998D01*
Y302999D01*
X266999Y301999D01*
X264000D01*
X269998Y304998D02*
X270998Y305998D01*
X272997D01*
X273997Y304998D01*
Y303999D01*
X272997Y302999D01*
X271997D01*
X272997D01*
X273997Y301999D01*
Y301000D01*
X272997Y300000D01*
X270998D01*
X269998Y301000D01*
X227002Y246000D02*
X228002D01*
X230001Y247999D01*
X228002Y249999D01*
X227002D01*
X230001Y247999D02*
X233000D01*
Y251998D02*
Y253997D01*
Y252998D01*
X227002D01*
X228002Y251998D01*
X282999Y230998D02*
X281999Y231998D01*
X280000D01*
X279000Y230998D01*
Y227000D01*
X280000Y226000D01*
X281999D01*
X282999Y227000D01*
X288997Y231998D02*
X284998D01*
Y228999D01*
X286997Y229999D01*
X287997D01*
X288997Y228999D01*
Y227000D01*
X287997Y226000D01*
X285998D01*
X284998Y227000D01*
X233000Y228000D02*
X227002D01*
Y230999D01*
X228002Y231999D01*
X230001D01*
X231001Y230999D01*
Y228000D01*
Y229999D02*
X233000Y231999D01*
X228002Y233998D02*
X227002Y234998D01*
Y236997D01*
X228002Y237997D01*
X229001D01*
X230001Y236997D01*
Y235997D01*
Y236997D01*
X231001Y237997D01*
X232000D01*
X233000Y236997D01*
Y234998D01*
X232000Y233998D01*
X233000Y216000D02*
X227002D01*
Y218999D01*
X228002Y219999D01*
X230001D01*
X231001Y218999D01*
Y216000D01*
Y217999D02*
X233000Y219999D01*
Y224997D02*
X227002D01*
X230001Y221998D01*
Y225997D01*
X208002Y228999D02*
X207002Y227999D01*
Y226000D01*
X208002Y225000D01*
X212000D01*
X213000Y226000D01*
Y227999D01*
X212000Y228999D01*
X213000Y233997D02*
X207002D01*
X210001Y230998D01*
Y234997D01*
X213000Y216000D02*
X207002D01*
Y218999D01*
X208002Y219999D01*
X210001D01*
X211001Y218999D01*
Y216000D01*
Y217999D02*
X213000Y219999D01*
Y221998D02*
Y223997D01*
Y222998D01*
X207002D01*
X208002Y221998D01*
X287000Y197000D02*
Y202998D01*
X289999D01*
X290999Y201998D01*
Y199999D01*
X289999Y198999D01*
X287000D01*
X296997Y202998D02*
X294997Y201998D01*
X292998Y199999D01*
Y198000D01*
X293998Y197000D01*
X295997D01*
X296997Y198000D01*
Y198999D01*
X295997Y199999D01*
X292998D01*
X249000Y197000D02*
Y202998D01*
X251999D01*
X252999Y201998D01*
Y199999D01*
X251999Y198999D01*
X249000D01*
X254998Y197000D02*
X256997D01*
X255998D01*
Y202998D01*
X254998Y201998D01*
X215000Y197000D02*
Y202998D01*
X217999D01*
X218999Y201998D01*
Y199999D01*
X217999Y198999D01*
X215000D01*
X224997Y197000D02*
X220998D01*
X224997Y200999D01*
Y201998D01*
X223997Y202998D01*
X221998D01*
X220998Y201998D01*
X196999Y238998D02*
X195999Y239998D01*
X194000D01*
X193000Y238998D01*
Y235000D01*
X194000Y234000D01*
X195999D01*
X196999Y235000D01*
X198998Y238998D02*
X199998Y239998D01*
X201997D01*
X202997Y238998D01*
Y237999D01*
X201997Y236999D01*
X200997D01*
X201997D01*
X202997Y235999D01*
Y235000D01*
X201997Y234000D01*
X199998D01*
X198998Y235000D01*
X195000Y209000D02*
Y214998D01*
X197999D01*
X198999Y213998D01*
Y211999D01*
X197999Y210999D01*
X195000D01*
X196999D02*
X198999Y209000D01*
X204997D02*
X200998D01*
X204997Y212999D01*
Y213998D01*
X203997Y214998D01*
X201998D01*
X200998Y213998D01*
X169998Y229001D02*
X170998Y230001D01*
Y232000D01*
X169998Y233000D01*
X166000D01*
X165000Y232000D01*
Y230001D01*
X166000Y229001D01*
X165000Y227002D02*
Y225003D01*
Y226002D01*
X170998D01*
X169998Y227002D01*
Y222004D02*
X170998Y221004D01*
Y219005D01*
X169998Y218005D01*
X166000D01*
X165000Y219005D01*
Y221004D01*
X166000Y222004D01*
X169998D01*
X179999Y213998D02*
X178999Y214998D01*
X177000D01*
X176000Y213998D01*
Y210000D01*
X177000Y209000D01*
X178999D01*
X179999Y210000D01*
X181998Y209000D02*
X183997D01*
X182998D01*
Y214998D01*
X181998Y213998D01*
X157499Y252998D02*
X156499Y253998D01*
X154500D01*
X153500Y252998D01*
Y249000D01*
X154500Y248000D01*
X156499D01*
X157499Y249000D01*
X159498Y252998D02*
X160498Y253998D01*
X162497D01*
X163497Y252998D01*
Y251999D01*
X162497Y250999D01*
X163497Y249999D01*
Y249000D01*
X162497Y248000D01*
X160498D01*
X159498Y249000D01*
Y249999D01*
X160498Y250999D01*
X159498Y251999D01*
Y252998D01*
X160498Y250999D02*
X162497D01*
X130002Y231999D02*
X129002Y230999D01*
Y229000D01*
X130002Y228000D01*
X134000D01*
X135000Y229000D01*
Y230999D01*
X134000Y231999D01*
X129002Y233998D02*
Y237997D01*
X130002D01*
X134000Y233998D01*
X135000D01*
X136500Y253998D02*
Y249000D01*
X137500Y248000D01*
X139499D01*
X140499Y249000D01*
Y253998D01*
X146497Y248000D02*
X142498D01*
X146497Y251999D01*
Y252998D01*
X145497Y253998D01*
X143498D01*
X142498Y252998D01*
X115999Y224498D02*
X114999Y225498D01*
X113000D01*
X112000Y224498D01*
Y220500D01*
X113000Y219500D01*
X114999D01*
X115999Y220500D01*
X117998D02*
X118998Y219500D01*
X120997D01*
X121997Y220500D01*
Y224498D01*
X120997Y225498D01*
X118998D01*
X117998Y224498D01*
Y223499D01*
X118998Y222499D01*
X121997D01*
X319799Y302898D02*
X318799Y303898D01*
X316800D01*
X315800Y302898D01*
Y298900D01*
X316800Y297900D01*
X318799D01*
X319799Y298900D01*
X325797Y297900D02*
X321798D01*
X325797Y301899D01*
Y302898D01*
X324797Y303898D01*
X322798D01*
X321798Y302898D01*
X335600Y288400D02*
Y294398D01*
X338599D01*
X339599Y293398D01*
Y291399D01*
X338599Y290399D01*
X335600D01*
X345597Y294398D02*
X341598D01*
Y291399D01*
X343597Y292399D01*
X344597D01*
X345597Y291399D01*
Y289400D01*
X344597Y288400D01*
X342598D01*
X341598Y289400D01*
X174500Y304398D02*
Y298400D01*
X177499D01*
X178499Y299400D01*
Y303398D01*
X177499Y304398D01*
X174500D01*
X180498Y298400D02*
X182497D01*
X181498D01*
Y304398D01*
X180498Y303398D01*
X289200Y303898D02*
Y297900D01*
X292199D01*
X293199Y298900D01*
Y302898D01*
X292199Y303898D01*
X289200D01*
X299197Y297900D02*
X295198D01*
X299197Y301899D01*
Y302898D01*
X298197Y303898D01*
X296198D01*
X295198Y302898D01*
D34*
X283366Y263976D02*
G03*
X283366Y263976I-492J0D01*
G01*
X163681Y241417D02*
G03*
X163681Y241417I-492J0D01*
G01*
D35*
X387941Y207520D02*
X393059D01*
X360000Y235000D02*
X370000D01*
Y195000D02*
Y235000D01*
X360000Y195000D02*
Y235000D01*
Y195000D02*
X370000D01*
X190000Y260000D02*
Y300000D01*
Y260000D02*
X200000D01*
Y255000D02*
Y260000D01*
Y255000D02*
X210000D01*
Y300000D01*
X190000D02*
X210000D01*
X215000Y285000D02*
X265000D01*
X218333Y290000D02*
Y303333D01*
X220000Y305000D01*
X221667Y303333D01*
Y290000D02*
Y303333D01*
X228333Y290000D02*
Y303333D01*
X230000Y305000D01*
X231667Y303333D01*
Y290000D02*
Y303333D01*
X238333Y290000D02*
Y303333D01*
X240000Y305000D01*
X241667Y303333D01*
Y290000D02*
Y303333D01*
X248333Y290000D02*
Y303333D01*
X250000Y305000D01*
X251667Y303333D01*
Y290000D02*
Y303333D01*
X258333Y290000D02*
Y303333D01*
X260000Y305000D01*
X261667Y303333D01*
Y290000D02*
Y303333D01*
X262500Y285000D02*
X265000Y287500D01*
X215000Y285000D02*
Y290000D01*
X265000D01*
Y285000D02*
Y290000D01*
X167480Y297717D02*
X167480Y288661D01*
X110000Y297717D02*
X167480D01*
X110000Y262283D02*
Y297717D01*
X167480Y262283D02*
Y271339D01*
X160000Y262283D02*
X167480D01*
X110000D02*
X142677D01*
X285433Y261083D02*
Y264567D01*
X288917D01*
X285433Y235433D02*
Y238917D01*
Y235433D02*
X288917D01*
X314567D02*
Y238917D01*
X311083Y235433D02*
X314567D01*
Y261083D02*
Y264567D01*
X311083D02*
X314567D01*
X265000Y275000D02*
X325000D01*
X265000Y285000D02*
X325000D01*
X265000Y275000D02*
Y285000D01*
X325000Y275000D02*
Y285000D01*
X227480Y227441D02*
Y232559D01*
X325000Y205000D02*
Y215000D01*
X285000Y205000D02*
X325000D01*
X285000Y215000D02*
X325000D01*
X285000Y205000D02*
Y215000D01*
Y205000D02*
Y215000D01*
X245000Y205000D02*
X285000D01*
X245000Y215000D02*
X285000D01*
X245000Y205000D02*
Y215000D01*
Y205000D02*
Y215000D01*
X215000Y205000D02*
X245000D01*
X215000D02*
Y215000D01*
X245000D01*
X192520Y227441D02*
Y232559D01*
X187480Y227441D02*
Y232559D01*
Y217441D02*
Y222559D01*
X136811Y224488D02*
Y235512D01*
X163189Y224488D02*
Y235512D01*
X136811Y224488D02*
X163189D01*
X136811Y235512D02*
X163189D01*
X112520Y227441D02*
Y232559D01*
X328980Y288941D02*
Y294059D01*
X335000Y205000D02*
Y285000D01*
Y205000D02*
X345000D01*
Y285000D01*
X335000D02*
X345000D01*
X173898Y294961D02*
X186102D01*
X173898Y265630D02*
X175669Y263858D01*
X184331D02*
X186102Y265630D01*
X175669Y263858D02*
X184331D01*
X173898Y284724D02*
Y294961D01*
X186102Y284724D02*
Y294961D01*
Y265630D02*
Y275276D01*
X173898Y265630D02*
Y275276D01*
X288583Y285472D02*
X296063D01*
X288583Y294528D02*
X296063D01*
X288583Y285472D02*
Y294528D01*
X312598Y287047D02*
Y292953D01*
X303937Y285472D02*
X310630D01*
Y294528D02*
X312598Y292953D01*
X310630Y285472D02*
X312598Y287047D01*
X303937Y294528D02*
X310630D01*
D36*
X264668Y272000D02*
X268000D01*
X264668Y268668D01*
Y267835D01*
X265501Y267002D01*
X267167D01*
X268000Y267835D01*
Y282000D02*
X266334D01*
X267167D01*
Y277002D01*
X268000Y277835D01*
X214000Y281167D02*
X213167Y282000D01*
X211501D01*
X210668Y281167D01*
Y277835D01*
X211501Y277002D01*
X213167D01*
X214000Y277835D01*
Y278668D01*
X213167Y279501D01*
X210668D01*
X214000Y272000D02*
X212334D01*
X213167D01*
Y267002D01*
X214000Y267835D01*
X209835D02*
X209002Y267002D01*
X207335D01*
X206502Y267835D01*
Y271167D01*
X207335Y272000D01*
X209002D01*
X209835Y271167D01*
Y267835D01*
M02*
