M48
;Layer_Color=9474304
;FILE_FORMAT=2:5
INCH,LZ
;TYPE=PLATED
T1F00S00C0.00787
T2F00S00C0.02756
T3F00S00C0.02800
T4F00S00C0.03543
T5F00S00C0.03937
%
T01
X0294094Y0244094
X0298031
X0301969
X0305906
Y0248031
Y0251969
X0301969
Y0248031
X0298031
Y0251969
X0294094
Y0248031
Y0255906
X0298031
X0301969
X0305906
T02
X02Y027
Y028
Y029
T03
X0315Y0275
X0331Y0274
X0329Y0284
X0306Y0274
X028Y0258
X02705Y02495
X0263Y025
X02675Y027
X028043Y023607
X02795Y02205
X029Y02175
X0296
X029728Y0228
X0308957Y0201043
X027Y0202
X0245Y02025
X02495Y0225
X0252Y0231
X0257Y022
X021Y024
X019Y0211
T04
X032Y021
X034
Y022
Y023
Y024
Y025
Y026
Y027
Y028
X032
X0365Y023
Y022
Y021
Y02
X031Y021
X03
X029
X028
X027
X026
X025
X024
X023
X022
Y027
Y028
X023
Y027
X024
Y028
X025
Y027
X026
Y028
X027
X028
X029
X03
X031
T05
X0163937Y0275079
Y0284921
X0139528Y0283937
Y0276063
X0147402Y0260315
X0155276
M30
