%FSLAX25Y25*%
%MOIN*%
G70*
G01*
G75*
G04 Layer_Color=2752767*
%ADD10R,0.05906X0.05118*%
%ADD11R,0.01575X0.02362*%
%ADD12R,0.18504X0.18504*%
%ADD13R,0.01102X0.04331*%
%ADD14R,0.04331X0.01102*%
%ADD15R,0.21654X0.07874*%
%ADD16R,0.10000X0.10000*%
%ADD17R,0.05118X0.05906*%
%ADD18R,0.10000X0.10000*%
%ADD19R,0.12992X0.09449*%
%ADD20R,0.03937X0.09449*%
%ADD21R,0.09055X0.09055*%
%ADD22R,0.05906X0.05906*%
%ADD23C,0.01000*%
%ADD24R,0.05906X0.05906*%
%ADD25C,0.05906*%
%ADD26C,0.04724*%
%ADD27R,0.04724X0.04724*%
%ADD28C,0.05906*%
%ADD29O,0.15748X0.07874*%
%ADD30O,0.07874X0.15748*%
%ADD31O,0.07874X0.17716*%
%ADD32C,0.01969*%
%ADD33C,0.05000*%
%ADD34C,0.00984*%
%ADD35C,0.00787*%
%ADD36C,0.00800*%
%ADD37C,0.00500*%
%ADD38C,0.00667*%
D37*
X363000Y198000D02*
Y202000D01*
X367000D01*
Y198000D01*
X363000D01*
Y208000D02*
Y212000D01*
X367000D01*
Y208000D01*
X363000D01*
Y218000D02*
Y222000D01*
X367000D01*
Y218000D01*
X363000D01*
Y228000D02*
Y232000D01*
X367000D01*
Y228000D01*
X363000D01*
X218000Y268000D02*
Y272000D01*
X222000D01*
Y268000D01*
X218000D01*
Y278000D02*
Y282000D01*
X222000D01*
Y278000D01*
X218000D01*
X228000Y268000D02*
Y272000D01*
X232000D01*
Y268000D01*
X228000D01*
Y278000D02*
Y282000D01*
X232000D01*
Y278000D01*
X228000D01*
X238000Y268000D02*
Y272000D01*
X242000D01*
Y268000D01*
X238000D01*
Y278000D02*
Y282000D01*
X242000D01*
Y278000D01*
X238000D01*
X248000Y268000D02*
Y272000D01*
X252000D01*
Y268000D01*
X248000D01*
Y278000D02*
Y282000D01*
X252000D01*
Y278000D01*
X248000D01*
X258000Y268000D02*
Y272000D01*
X262000D01*
Y268000D01*
X258000D01*
Y278000D02*
Y282000D01*
X262000D01*
Y278000D01*
X258000D01*
X163937Y273079D02*
X161937Y277079D01*
X165937D01*
X163937Y273079D01*
X147402Y258315D02*
X145402Y262315D01*
X149402D01*
X147402Y258315D01*
X155276D02*
X153276Y262315D01*
X157276D01*
X155276Y258315D01*
X139528Y281937D02*
X137528Y285937D01*
X141528D01*
X139528Y281937D01*
Y274063D02*
X137528Y278063D01*
X141528D01*
X139528Y274063D01*
X163937Y282921D02*
X161937Y286921D01*
X165937D01*
X163937Y282921D01*
X318000Y278000D02*
Y282000D01*
X322000D01*
Y278000D01*
X318000D01*
X308000D02*
Y282000D01*
X312000D01*
Y278000D01*
X308000D01*
X298000D02*
Y282000D01*
X302000D01*
Y278000D01*
X298000D01*
X288000D02*
Y282000D01*
X292000D01*
Y278000D01*
X288000D01*
X278000D02*
Y282000D01*
X282000D01*
Y278000D01*
X278000D01*
X268000D02*
Y282000D01*
X272000D01*
Y278000D01*
X268000D01*
X288000Y208000D02*
Y212000D01*
X292000D01*
Y208000D01*
X288000D01*
X298000D02*
Y212000D01*
X302000D01*
Y208000D01*
X298000D01*
X308000D02*
Y212000D01*
X312000D01*
Y208000D01*
X308000D01*
X318000D02*
Y212000D01*
X322000D01*
Y208000D01*
X318000D01*
X248000D02*
Y212000D01*
X252000D01*
Y208000D01*
X248000D01*
X258000D02*
Y212000D01*
X262000D01*
Y208000D01*
X258000D01*
X268000D02*
Y212000D01*
X272000D01*
Y208000D01*
X268000D01*
X278000D02*
Y212000D01*
X282000D01*
Y208000D01*
X278000D01*
X218000D02*
Y212000D01*
X222000D01*
Y208000D01*
X218000D01*
X228000D02*
Y212000D01*
X232000D01*
Y208000D01*
X228000D01*
X238000D02*
Y212000D01*
X242000D01*
Y208000D01*
X238000D01*
X338000Y278000D02*
Y282000D01*
X342000D01*
Y278000D01*
X338000D01*
Y268000D02*
Y272000D01*
X342000D01*
Y268000D01*
X338000D01*
Y258000D02*
Y262000D01*
X342000D01*
Y258000D01*
X338000D01*
Y248000D02*
Y252000D01*
X342000D01*
Y248000D01*
X338000D01*
Y238000D02*
Y242000D01*
X342000D01*
Y238000D01*
X338000D01*
Y228000D02*
Y232000D01*
X342000D01*
Y228000D01*
X338000D01*
Y218000D02*
Y222000D01*
X342000D01*
Y218000D01*
X338000D01*
Y208000D02*
Y212000D01*
X342000D01*
Y208000D01*
X338000D01*
X305906Y242094D02*
X306906Y243094D01*
X307906D01*
X306906Y244094D01*
X307906Y245094D01*
X306906D01*
X305906Y246094D01*
X304906Y245094D01*
X303906D01*
X304906Y244094D01*
X303906Y243094D01*
X304906D01*
X305906Y242094D01*
X301969D02*
X302969Y243094D01*
X303969D01*
X302969Y244094D01*
X303969Y245094D01*
X302969D01*
X301969Y246094D01*
X300969Y245094D01*
X299969D01*
X300969Y244094D01*
X299969Y243094D01*
X300969D01*
X301969Y242094D01*
X298031D02*
X299031Y243094D01*
X300031D01*
X299031Y244094D01*
X300031Y245094D01*
X299031D01*
X298031Y246094D01*
X297031Y245094D01*
X296031D01*
X297031Y244094D01*
X296031Y243094D01*
X297031D01*
X298031Y242094D01*
X294094D02*
X295094Y243094D01*
X296094D01*
X295094Y244094D01*
X296094Y245094D01*
X295094D01*
X294094Y246094D01*
X293094Y245094D01*
X292094D01*
X293094Y244094D01*
X292094Y243094D01*
X293094D01*
X294094Y242094D01*
X305906Y246031D02*
X306906Y247031D01*
X307906D01*
X306906Y248031D01*
X307906Y249031D01*
X306906D01*
X305906Y250031D01*
X304906Y249031D01*
X303906D01*
X304906Y248031D01*
X303906Y247031D01*
X304906D01*
X305906Y246031D01*
X301969D02*
X302969Y247031D01*
X303969D01*
X302969Y248031D01*
X303969Y249031D01*
X302969D01*
X301969Y250031D01*
X300969Y249031D01*
X299969D01*
X300969Y248031D01*
X299969Y247031D01*
X300969D01*
X301969Y246031D01*
X298031D02*
X299031Y247031D01*
X300031D01*
X299031Y248031D01*
X300031Y249031D01*
X299031D01*
X298031Y250031D01*
X297031Y249031D01*
X296031D01*
X297031Y248031D01*
X296031Y247031D01*
X297031D01*
X298031Y246031D01*
X294094D02*
X295094Y247031D01*
X296094D01*
X295094Y248031D01*
X296094Y249031D01*
X295094D01*
X294094Y250031D01*
X293094Y249031D01*
X292094D01*
X293094Y248031D01*
X292094Y247031D01*
X293094D01*
X294094Y246031D01*
X305906Y249969D02*
X306906Y250969D01*
X307906D01*
X306906Y251969D01*
X307906Y252969D01*
X306906D01*
X305906Y253969D01*
X304906Y252969D01*
X303906D01*
X304906Y251969D01*
X303906Y250969D01*
X304906D01*
X305906Y249969D01*
X301969D02*
X302969Y250969D01*
X303969D01*
X302969Y251969D01*
X303969Y252969D01*
X302969D01*
X301969Y253969D01*
X300969Y252969D01*
X299969D01*
X300969Y251969D01*
X299969Y250969D01*
X300969D01*
X301969Y249969D01*
X298031D02*
X299031Y250969D01*
X300031D01*
X299031Y251969D01*
X300031Y252969D01*
X299031D01*
X298031Y253969D01*
X297031Y252969D01*
X296031D01*
X297031Y251969D01*
X296031Y250969D01*
X297031D01*
X298031Y249969D01*
X294094D02*
X295094Y250969D01*
X296094D01*
X295094Y251969D01*
X296094Y252969D01*
X295094D01*
X294094Y253969D01*
X293094Y252969D01*
X292094D01*
X293094Y251969D01*
X292094Y250969D01*
X293094D01*
X294094Y249969D01*
X305906Y253906D02*
X306906Y254906D01*
X307906D01*
X306906Y255906D01*
X307906Y256906D01*
X306906D01*
X305906Y257906D01*
X304906Y256906D01*
X303906D01*
X304906Y255906D01*
X303906Y254906D01*
X304906D01*
X305906Y253906D01*
X301969D02*
X302969Y254906D01*
X303969D01*
X302969Y255906D01*
X303969Y256906D01*
X302969D01*
X301969Y257906D01*
X300969Y256906D01*
X299969D01*
X300969Y255906D01*
X299969Y254906D01*
X300969D01*
X301969Y253906D01*
X298031D02*
X299031Y254906D01*
X300031D01*
X299031Y255906D01*
X300031Y256906D01*
X299031D01*
X298031Y257906D01*
X297031Y256906D01*
X296031D01*
X297031Y255906D01*
X296031Y254906D01*
X297031D01*
X298031Y253906D01*
X294094D02*
X295094Y254906D01*
X296094D01*
X295094Y255906D01*
X296094Y256906D01*
X295094D01*
X294094Y257906D01*
X293094Y256906D01*
X292094D01*
X293094Y255906D01*
X292094Y254906D01*
X293094D01*
X294094Y253906D01*
X243000Y200500D02*
X244000Y202500D01*
X243000Y204500D01*
X245000Y203500D01*
X247000Y204500D01*
X246000Y202500D01*
X247000Y200500D01*
X245000Y201500D01*
X243000Y200500D01*
X247500Y223000D02*
X248500Y225000D01*
X247500Y227000D01*
X249500Y226000D01*
X251500Y227000D01*
X250500Y225000D01*
X251500Y223000D01*
X249500Y224000D01*
X247500Y223000D01*
X250000Y229000D02*
X251000Y231000D01*
X250000Y233000D01*
X252000Y232000D01*
X254000Y233000D01*
X253000Y231000D01*
X254000Y229000D01*
X252000Y230000D01*
X250000Y229000D01*
X288000Y215500D02*
X289000Y217500D01*
X288000Y219500D01*
X290000Y218500D01*
X292000Y219500D01*
X291000Y217500D01*
X292000Y215500D01*
X290000Y216500D01*
X288000Y215500D01*
X294000D02*
X295000Y217500D01*
X294000Y219500D01*
X296000Y218500D01*
X298000Y219500D01*
X297000Y217500D01*
X298000Y215500D01*
X296000Y216500D01*
X294000Y215500D01*
X277500Y218500D02*
X278500Y220500D01*
X277500Y222500D01*
X279500Y221500D01*
X281500Y222500D01*
X280500Y220500D01*
X281500Y218500D01*
X279500Y219500D01*
X277500Y218500D01*
X295280Y226000D02*
X296280Y228000D01*
X295280Y230000D01*
X297280Y229000D01*
X299279Y230000D01*
X298280Y228000D01*
X299279Y226000D01*
X297280Y227000D01*
X295280Y226000D01*
X278430Y234070D02*
X279430Y236070D01*
X278430Y238070D01*
X280430Y237070D01*
X282430Y238070D01*
X281430Y236070D01*
X282430Y234070D01*
X280430Y235070D01*
X278430Y234070D01*
X261000Y248000D02*
X262000Y250000D01*
X261000Y252000D01*
X263000Y251000D01*
X265000Y252000D01*
X264000Y250000D01*
X265000Y248000D01*
X263000Y249000D01*
X261000Y248000D01*
X268500Y247500D02*
X269500Y249500D01*
X268500Y251500D01*
X270500Y250500D01*
X272500Y251500D01*
X271500Y249500D01*
X272500Y247500D01*
X270500Y248500D01*
X268500Y247500D01*
X265500Y268000D02*
X266500Y270000D01*
X265500Y272000D01*
X267500Y271000D01*
X269500Y272000D01*
X268500Y270000D01*
X269500Y268000D01*
X267500Y269000D01*
X265500Y268000D01*
X304000Y272000D02*
X305000Y274000D01*
X304000Y276000D01*
X306000Y275000D01*
X308000Y276000D01*
X307000Y274000D01*
X308000Y272000D01*
X306000Y273000D01*
X304000Y272000D01*
X278000Y256000D02*
X279000Y258000D01*
X278000Y260000D01*
X280000Y259000D01*
X282000Y260000D01*
X281000Y258000D01*
X282000Y256000D01*
X280000Y257000D01*
X278000Y256000D01*
X306957Y199043D02*
X307957Y201043D01*
X306957Y203043D01*
X308957Y202043D01*
X310957Y203043D01*
X309957Y201043D01*
X310957Y199043D01*
X308957Y200043D01*
X306957Y199043D01*
X188000Y209000D02*
X189000Y211000D01*
X188000Y213000D01*
X190000Y212000D01*
X192000Y213000D01*
X191000Y211000D01*
X192000Y209000D01*
X190000Y210000D01*
X188000Y209000D01*
X208000Y238000D02*
X209000Y240000D01*
X208000Y242000D01*
X210000Y241000D01*
X212000Y242000D01*
X211000Y240000D01*
X212000Y238000D01*
X210000Y239000D01*
X208000Y238000D01*
X255000Y218000D02*
X256000Y220000D01*
X255000Y222000D01*
X257000Y221000D01*
X259000Y222000D01*
X258000Y220000D01*
X259000Y218000D01*
X257000Y219000D01*
X255000Y218000D01*
X268000Y200000D02*
X269000Y202000D01*
X268000Y204000D01*
X270000Y203000D01*
X272000Y204000D01*
X271000Y202000D01*
X272000Y200000D01*
X270000Y201000D01*
X268000Y200000D01*
X327000Y282000D02*
X328000Y284000D01*
X327000Y286000D01*
X329000Y285000D01*
X331000Y286000D01*
X330000Y284000D01*
X331000Y282000D01*
X329000Y283000D01*
X327000Y282000D01*
X313000Y273000D02*
X314000Y275000D01*
X313000Y277000D01*
X315000Y276000D01*
X317000Y277000D01*
X316000Y275000D01*
X317000Y273000D01*
X315000Y274000D01*
X313000Y273000D01*
X329000Y272000D02*
X330000Y274000D01*
X329000Y276000D01*
X331000Y275000D01*
X333000Y276000D01*
X332000Y274000D01*
X333000Y272000D01*
X331000Y273000D01*
X329000Y272000D01*
D38*
X202000Y270000D02*
G03*
X202000Y270000I-2000J0D01*
G01*
Y280000D02*
G03*
X202000Y280000I-2000J0D01*
G01*
Y290000D02*
G03*
X202000Y290000I-2000J0D01*
G01*
M02*
